<?xml version="1.0" encoding="UTF-8" standalone="no"?>
<!DOCTYPE svg PUBLIC "-//W3C//DTD SVG 1.1//EN"
 "http://www.w3.org/Graphics/SVG/1.1/DTD/svg11.dtd">
<!-- Generated by graphviz version 13.1.0 (20250701.0955)
 -->
<!-- Title: scd4x_basic_deinit Pages: 1 -->
<svg width="249pt" height="78pt"
 viewBox="0.00 0.00 249.00 78.00" xmlns="http://www.w3.org/2000/svg" xmlns:xlink="http://www.w3.org/1999/xlink">
<g id="graph0" class="graph" transform="scale(1 1) rotate(0) translate(4 74)">
<title>scd4x_basic_deinit</title>
<!-- Node1 -->
<g id="Node000001" class="node">
<title>Node1</title>
<g id="a_Node000001"><a xlink:title="basic example deinit">
<polygon fill="#999999" stroke="#666666" points="99.25,-48 0,-48 0,-28 99.25,-28 99.25,-48"/>
<text xml:space="preserve" text-anchor="middle" x="49.62" y="-34.5" font-family="Helvetica,sans-Serif" font-size="10.00">scd4x_basic_deinit</text>
</a>
</g>
</g>
<!-- Node2 -->
<g id="Node000002" class="node">
<title>Node2</title>
<g id="a_Node000002"><a xlink:href="group__scd4x__basic__driver.html#ga1f054162b41924d421d9d50f326c21f4" target="_top" xlink:title="close the chip">
<polygon fill="white" stroke="#666666" points="223.25,-70 152.5,-70 152.5,-50 223.25,-50 223.25,-70"/>
<text xml:space="preserve" text-anchor="middle" x="187.88" y="-56.5" font-family="Helvetica,sans-Serif" font-size="10.00">scd4x_deinit</text>
</a>
</g>
</g>
<!-- Node1&#45;&gt;Node2 -->
<g id="edge1_Node000001_Node000002" class="edge">
<title>Node1&#45;&gt;Node2</title>
<g id="a_edge1_Node000001_Node000002"><a xlink:title=" ">
<path fill="none" stroke="#63b8ff" d="M99.43,-45.88C112.89,-48.05 127.46,-50.41 140.77,-52.55"/>
<polygon fill="#63b8ff" stroke="#63b8ff" points="140.15,-56 150.58,-54.14 141.27,-49.09 140.15,-56"/>
</a>
</g>
</g>
<!-- Node3 -->
<g id="Node000003" class="node">
<title>Node3</title>
<g id="a_Node000003"><a xlink:href="group__scd4x__basic__driver.html#ga067b1e107f9ae3ca1189d54c3f22d572" target="_top" xlink:title="stop periodic measurement">
<polygon fill="white" stroke="#666666" points="240.5,-32 135.25,-32 135.25,0 240.5,0 240.5,-32"/>
<text xml:space="preserve" text-anchor="start" x="143.25" y="-18.5" font-family="Helvetica,sans-Serif" font-size="10.00">scd4x_stop_periodic</text>
<text xml:space="preserve" text-anchor="middle" x="187.88" y="-6.5" font-family="Helvetica,sans-Serif" font-size="10.00">_measurement</text>
</a>
</g>
</g>
<!-- Node1&#45;&gt;Node3 -->
<g id="edge2_Node000001_Node000003" class="edge">
<title>Node1&#45;&gt;Node3</title>
<g id="a_edge2_Node000001_Node000003"><a xlink:title=" ">
<path fill="none" stroke="#63b8ff" d="M99.43,-30.12C107.41,-28.83 115.77,-27.48 124.03,-26.15"/>
<polygon fill="#63b8ff" stroke="#63b8ff" points="124.38,-29.64 133.69,-24.59 123.26,-22.73 124.38,-29.64"/>
</a>
</g>
</g>
</g>
</svg>
