<?xml version="1.0" encoding="UTF-8" standalone="no"?>
<!DOCTYPE svg PUBLIC "-//W3C//DTD SVG 1.1//EN"
 "http://www.w3.org/Graphics/SVG/1.1/DTD/svg11.dtd">
<!-- Generated by graphviz version 13.1.0 (20250701.0955)
 -->
<!-- Title: scd4x driver function Pages: 1 -->
<svg width="277pt" height="316pt"
 viewBox="0.00 0.00 277.00 316.00" xmlns="http://www.w3.org/2000/svg" xmlns:xlink="http://www.w3.org/1999/xlink">
<g id="graph0" class="graph" transform="scale(1 1) rotate(0) translate(4 312)">
<title>scd4x driver function</title>
<!-- Node4 -->
<g id="Node000004" class="node">
<title>Node4</title>
<g id="a_Node000004"><a xlink:href="group__scd4x__advance__driver.html" target="_top" xlink:title="scd4x advance driver modules">
<polygon fill="white" stroke="#666666" points="260.38,-308 151.38,-308 151.38,-276 260.38,-276 260.38,-308"/>
<text xml:space="preserve" text-anchor="start" x="159.38" y="-294.5" font-family="Helvetica,sans-Serif" font-size="10.00">scd4x advance driver</text>
<text xml:space="preserve" text-anchor="middle" x="205.88" y="-282.5" font-family="Helvetica,sans-Serif" font-size="10.00"> function</text>
</a>
</g>
</g>
<!-- Node3 -->
<g id="Node000003" class="node">
<title>Node3</title>
<g id="a_Node000003"><a xlink:href="group__scd4x__basic__driver.html" target="_top" xlink:title="scd4x basic driver modules">
<polygon fill="white" stroke="#666666" points="253.62,-258 158.12,-258 158.12,-226 253.62,-226 253.62,-258"/>
<text xml:space="preserve" text-anchor="start" x="166.12" y="-244.5" font-family="Helvetica,sans-Serif" font-size="10.00">scd4x basic driver</text>
<text xml:space="preserve" text-anchor="middle" x="205.88" y="-232.5" font-family="Helvetica,sans-Serif" font-size="10.00"> function</text>
</a>
</g>
</g>
<!-- Node1 -->
<g id="Node000001" class="node">
<title>Node1</title>
<g id="a_Node000001"><a xlink:title="scd4x driver modules">
<polygon fill="#999999" stroke="#666666" points="106.75,-152 0,-152 0,-132 106.75,-132 106.75,-152"/>
<text xml:space="preserve" text-anchor="middle" x="53.38" y="-138.5" font-family="Helvetica,sans-Serif" font-size="10.00">scd4x driver function</text>
</a>
</g>
</g>
<!-- Node1&#45;&gt;Node4 -->
<g id="edge3" class="edge">
<title>Node1&#45;&gt;Node4</title>
<path fill="none" stroke="black" d="M64.15,-162.55C78.09,-189.86 106.08,-238.01 142.75,-267 146.85,-270.24 151.43,-273.12 156.2,-275.66"/>
<polygon fill="black" stroke="black" points="67.3,-161.01 59.73,-153.6 61.02,-164.11 67.3,-161.01"/>
</g>
<!-- Node1&#45;&gt;Node3 -->
<g id="edge2" class="edge">
<title>Node1&#45;&gt;Node3</title>
<path fill="none" stroke="black" d="M72.32,-160.29C89.29,-176.79 116.05,-200.88 142.75,-217 147.93,-220.12 153.56,-223.01 159.26,-225.63"/>
<polygon fill="black" stroke="black" points="75.04,-158.05 65.47,-153.5 70.11,-163.02 75.04,-158.05"/>
</g>
<!-- Node7 -->
<g id="Node000007" class="node">
<title>Node7</title>
<g id="a_Node000007"><a xlink:href="group__scd4x__example__driver.html" target="_top" xlink:title="scd4x example driver modules">
<polygon fill="white" stroke="#666666" points="260.38,-208 151.38,-208 151.38,-176 260.38,-176 260.38,-208"/>
<text xml:space="preserve" text-anchor="start" x="159.38" y="-194.5" font-family="Helvetica,sans-Serif" font-size="10.00">scd4x example driver</text>
<text xml:space="preserve" text-anchor="middle" x="205.88" y="-182.5" font-family="Helvetica,sans-Serif" font-size="10.00"> function</text>
</a>
</g>
</g>
<!-- Node1&#45;&gt;Node7 -->
<g id="edge6" class="edge">
<title>Node1&#45;&gt;Node7</title>
<path fill="none" stroke="black" d="M96.79,-156.09C114.99,-162.14 136.37,-169.24 155.3,-175.53"/>
<polygon fill="black" stroke="black" points="97.95,-152.79 87.36,-152.96 95.75,-159.43 97.95,-152.79"/>
</g>
<!-- Node5 -->
<g id="Node000005" class="node">
<title>Node5</title>
<g id="a_Node000005"><a xlink:href="group__scd4x__extern__driver.html" target="_top" xlink:title="scd4x extern driver modules">
<polygon fill="white" stroke="#666666" points="255.5,-158 156.25,-158 156.25,-126 255.5,-126 255.5,-158"/>
<text xml:space="preserve" text-anchor="start" x="164.25" y="-144.5" font-family="Helvetica,sans-Serif" font-size="10.00">scd4x extern driver</text>
<text xml:space="preserve" text-anchor="middle" x="205.88" y="-132.5" font-family="Helvetica,sans-Serif" font-size="10.00"> function</text>
</a>
</g>
</g>
<!-- Node1&#45;&gt;Node5 -->
<g id="edge4" class="edge">
<title>Node1&#45;&gt;Node5</title>
<path fill="none" stroke="black" d="M118.36,-142C130.89,-142 143.85,-142 155.8,-142"/>
<polygon fill="black" stroke="black" points="118.53,-138.5 108.53,-142 118.53,-145.5 118.53,-138.5"/>
</g>
<!-- Node6 -->
<g id="Node000006" class="node">
<title>Node6</title>
<g id="a_Node000006"><a xlink:href="group__scd4x__interface__driver.html" target="_top" xlink:title="scd4x interface driver modules">
<polygon fill="white" stroke="#666666" points="260.75,-108 151,-108 151,-76 260.75,-76 260.75,-108"/>
<text xml:space="preserve" text-anchor="start" x="159" y="-94.5" font-family="Helvetica,sans-Serif" font-size="10.00">scd4x interface driver</text>
<text xml:space="preserve" text-anchor="middle" x="205.88" y="-82.5" font-family="Helvetica,sans-Serif" font-size="10.00"> function</text>
</a>
</g>
</g>
<!-- Node1&#45;&gt;Node6 -->
<g id="edge5" class="edge">
<title>Node1&#45;&gt;Node6</title>
<path fill="none" stroke="black" d="M96.79,-127.91C114.99,-121.86 136.37,-114.76 155.3,-108.47"/>
<polygon fill="black" stroke="black" points="95.75,-124.57 87.36,-131.04 97.95,-131.21 95.75,-124.57"/>
</g>
<!-- Node2 -->
<g id="Node000002" class="node">
<title>Node2</title>
<g id="a_Node000002"><a xlink:href="group__scd4x__link__driver.html" target="_top" xlink:title="scd4x link driver modules">
<polygon fill="white" stroke="#666666" points="268.25,-58 143.5,-58 143.5,-38 268.25,-38 268.25,-58"/>
<text xml:space="preserve" text-anchor="middle" x="205.88" y="-44.5" font-family="Helvetica,sans-Serif" font-size="10.00">scd4x link driver function</text>
</a>
</g>
</g>
<!-- Node1&#45;&gt;Node2 -->
<g id="edge1" class="edge">
<title>Node1&#45;&gt;Node2</title>
<path fill="none" stroke="black" d="M71.46,-123.72C88.18,-106.83 115.08,-82.12 142.75,-67 148.89,-63.65 155.69,-60.8 162.49,-58.42"/>
<polygon fill="black" stroke="black" points="69.19,-121.04 64.76,-130.67 74.22,-125.91 69.19,-121.04"/>
</g>
<!-- Node8 -->
<g id="Node000008" class="node">
<title>Node8</title>
<g id="a_Node000008"><a xlink:href="group__scd4x__test__driver.html" target="_top" xlink:title="scd4x test driver modules">
<polygon fill="white" stroke="#666666" points="269,-20 142.75,-20 142.75,0 269,0 269,-20"/>
<text xml:space="preserve" text-anchor="middle" x="205.88" y="-6.5" font-family="Helvetica,sans-Serif" font-size="10.00">scd4x test driver function</text>
</a>
</g>
</g>
<!-- Node1&#45;&gt;Node8 -->
<g id="edge7" class="edge">
<title>Node1&#45;&gt;Node8</title>
<path fill="none" stroke="black" d="M65.15,-121.53C79.53,-96.16 107.34,-53.32 142.75,-29 147.77,-25.55 153.44,-22.71 159.25,-20.38"/>
<polygon fill="black" stroke="black" points="62.14,-119.75 60.4,-130.2 68.27,-123.12 62.14,-119.75"/>
</g>
</g>
</svg>
