<?xml version="1.0" encoding="UTF-8" standalone="no"?>
<!DOCTYPE svg PUBLIC "-//W3C//DTD SVG 1.1//EN"
 "http://www.w3.org/Graphics/SVG/1.1/DTD/svg11.dtd">
<!-- Generated by graphviz version 13.1.0 (20250701.0955)
 -->
<!-- Title: scd4x_basic_init Pages: 1 -->
<svg width="265pt" height="430pt"
 viewBox="0.00 0.00 265.00 430.00" xmlns="http://www.w3.org/2000/svg" xmlns:xlink="http://www.w3.org/1999/xlink">
<g id="graph0" class="graph" transform="scale(1 1) rotate(0) translate(4 426)">
<title>scd4x_basic_init</title>
<!-- Node1 -->
<g id="Node000001" class="node">
<title>Node1</title>
<g id="a_Node000001"><a xlink:title="basic example init">
<polygon fill="#999999" stroke="#666666" points="88.75,-230 0,-230 0,-210 88.75,-210 88.75,-230"/>
<text xml:space="preserve" text-anchor="middle" x="44.38" y="-216.5" font-family="Helvetica,sans-Serif" font-size="10.00">scd4x_basic_init</text>
</a>
</g>
</g>
<!-- Node2 -->
<g id="Node000002" class="node">
<title>Node2</title>
<g id="a_Node000002"><a xlink:href="group__scd4x__basic__driver.html#ga1f054162b41924d421d9d50f326c21f4" target="_top" xlink:title="close the chip">
<polygon fill="white" stroke="#666666" points="226.25,-422 155.5,-422 155.5,-402 226.25,-402 226.25,-422"/>
<text xml:space="preserve" text-anchor="middle" x="190.88" y="-408.5" font-family="Helvetica,sans-Serif" font-size="10.00">scd4x_deinit</text>
</a>
</g>
</g>
<!-- Node1&#45;&gt;Node2 -->
<g id="edge1_Node000001_Node000002" class="edge">
<title>Node1&#45;&gt;Node2</title>
<g id="a_edge1_Node000001_Node000002"><a xlink:title=" ">
<path fill="none" stroke="#63b8ff" d="M47.05,-230.36C52.46,-260.29 72.23,-347.65 124.75,-393 130.44,-397.91 137.34,-401.56 144.5,-404.26"/>
<polygon fill="#63b8ff" stroke="#63b8ff" points="143.01,-407.46 153.6,-407.13 145.12,-400.79 143.01,-407.46"/>
</a>
</g>
</g>
<!-- Node3 -->
<g id="Node000003" class="node">
<title>Node3</title>
<g id="a_Node000003"><a xlink:href="group__scd4x__basic__driver.html#ga873aa589ed9fdc270fc35e5523b002fc" target="_top" xlink:title="initialize the chip">
<polygon fill="white" stroke="#666666" points="221,-384 160.75,-384 160.75,-364 221,-364 221,-384"/>
<text xml:space="preserve" text-anchor="middle" x="190.88" y="-370.5" font-family="Helvetica,sans-Serif" font-size="10.00">scd4x_init</text>
</a>
</g>
</g>
<!-- Node1&#45;&gt;Node3 -->
<g id="edge2_Node000001_Node000003" class="edge">
<title>Node1&#45;&gt;Node3</title>
<g id="a_edge2_Node000001_Node000003"><a xlink:title=" ">
<path fill="none" stroke="#63b8ff" d="M48.45,-230.23C56.57,-255.43 80.99,-320.92 124.75,-355 131.94,-360.6 140.73,-364.55 149.49,-367.33"/>
<polygon fill="#63b8ff" stroke="#63b8ff" points="148.44,-370.67 159,-369.88 150.25,-363.91 148.44,-370.67"/>
</a>
</g>
</g>
<!-- Node4 -->
<g id="Node000004" class="node">
<title>Node4</title>
<g id="a_Node000004"><a xlink:href="group__scd4x__interface__driver.html#gab9a9e2f27cee5704e5bf3dd92058e5b8" target="_top" xlink:title="interface print format data">
<polygon fill="white" stroke="#666666" points="249.12,-346 132.62,-346 132.62,-314 249.12,-314 249.12,-346"/>
<text xml:space="preserve" text-anchor="start" x="140.62" y="-332.5" font-family="Helvetica,sans-Serif" font-size="10.00">scd4x_interface_debug</text>
<text xml:space="preserve" text-anchor="middle" x="190.88" y="-320.5" font-family="Helvetica,sans-Serif" font-size="10.00">_print</text>
</a>
</g>
</g>
<!-- Node1&#45;&gt;Node4 -->
<g id="edge3_Node000001_Node000004" class="edge">
<title>Node1&#45;&gt;Node4</title>
<g id="a_edge3_Node000001_Node000004"><a xlink:title=" ">
<path fill="none" stroke="#63b8ff" d="M52.54,-230.32C65.22,-247.89 93.27,-283.78 124.75,-305 126.52,-306.19 128.36,-307.34 130.24,-308.44"/>
<polygon fill="#63b8ff" stroke="#63b8ff" points="128.15,-311.3 138.63,-312.87 131.42,-305.11 128.15,-311.3"/>
</a>
</g>
</g>
<!-- Node5 -->
<g id="Node000005" class="node">
<title>Node5</title>
<g id="a_Node000005"><a xlink:href="group__scd4x__interface__driver.html#ga71814c8ae04515f11a6e27bede9ecc5a" target="_top" xlink:title="interface delay ms">
<polygon fill="white" stroke="#666666" points="257,-296 124.75,-296 124.75,-276 257,-276 257,-296"/>
<text xml:space="preserve" text-anchor="middle" x="190.88" y="-282.5" font-family="Helvetica,sans-Serif" font-size="10.00">scd4x_interface_delay_ms</text>
</a>
</g>
</g>
<!-- Node1&#45;&gt;Node5 -->
<g id="edge4_Node000001_Node000005" class="edge">
<title>Node1&#45;&gt;Node5</title>
<g id="a_edge4_Node000001_Node000005"><a xlink:title=" ">
<path fill="none" stroke="#63b8ff" d="M60.28,-230.37C75.8,-240.8 101.1,-256.74 124.75,-267 128.83,-268.77 133.12,-270.43 137.47,-271.97"/>
<polygon fill="#63b8ff" stroke="#63b8ff" points="136.3,-275.27 146.89,-275.1 138.5,-268.63 136.3,-275.27"/>
</a>
</g>
</g>
<!-- Node6 -->
<g id="Node000006" class="node">
<title>Node6</title>
<g id="a_Node000006"><a xlink:href="group__scd4x__interface__driver.html#ga9a75c8aec4846db2e2a54c6e054821d0" target="_top" xlink:title="interface iic bus deinit">
<polygon fill="white" stroke="#666666" points="240.88,-258 140.88,-258 140.88,-226 240.88,-226 240.88,-258"/>
<text xml:space="preserve" text-anchor="start" x="148.88" y="-244.5" font-family="Helvetica,sans-Serif" font-size="10.00">scd4x_interface_iic</text>
<text xml:space="preserve" text-anchor="middle" x="190.88" y="-232.5" font-family="Helvetica,sans-Serif" font-size="10.00">_deinit</text>
</a>
</g>
</g>
<!-- Node1&#45;&gt;Node6 -->
<g id="edge5_Node000001_Node000006" class="edge">
<title>Node1&#45;&gt;Node6</title>
<g id="a_edge5_Node000001_Node000006"><a xlink:title=" ">
<path fill="none" stroke="#63b8ff" d="M89.12,-226.66C101.78,-228.59 115.82,-230.73 129.31,-232.78"/>
<polygon fill="#63b8ff" stroke="#63b8ff" points="128.55,-236.2 138.97,-234.25 129.61,-229.28 128.55,-236.2"/>
</a>
</g>
</g>
<!-- Node7 -->
<g id="Node000007" class="node">
<title>Node7</title>
<g id="a_Node000007"><a xlink:href="group__scd4x__interface__driver.html#ga4cb023c5a744b8df087040795c7eb275" target="_top" xlink:title="interface iic bus init">
<polygon fill="white" stroke="#666666" points="249.88,-208 131.88,-208 131.88,-188 249.88,-188 249.88,-208"/>
<text xml:space="preserve" text-anchor="middle" x="190.88" y="-194.5" font-family="Helvetica,sans-Serif" font-size="10.00">scd4x_interface_iic_init</text>
</a>
</g>
</g>
<!-- Node1&#45;&gt;Node7 -->
<g id="edge6_Node000001_Node000007" class="edge">
<title>Node1&#45;&gt;Node7</title>
<g id="a_edge6_Node000001_Node000007"><a xlink:title=" ">
<path fill="none" stroke="#63b8ff" d="M89.12,-213.34C99.05,-211.83 109.83,-210.19 120.52,-208.56"/>
<polygon fill="#63b8ff" stroke="#63b8ff" points="120.74,-212.07 130.1,-207.1 119.69,-205.15 120.74,-212.07"/>
</a>
</g>
</g>
<!-- Node8 -->
<g id="Node000008" class="node">
<title>Node8</title>
<g id="a_Node000008"><a xlink:href="group__scd4x__interface__driver.html#gaafb0ebf4f1c86548f875e20a38b86a3d" target="_top" xlink:title="interface iic bus read command">
<polygon fill="white" stroke="#666666" points="240.88,-170 140.88,-170 140.88,-138 240.88,-138 240.88,-170"/>
<text xml:space="preserve" text-anchor="start" x="148.88" y="-156.5" font-family="Helvetica,sans-Serif" font-size="10.00">scd4x_interface_iic</text>
<text xml:space="preserve" text-anchor="middle" x="190.88" y="-144.5" font-family="Helvetica,sans-Serif" font-size="10.00">_read_cmd</text>
</a>
</g>
</g>
<!-- Node1&#45;&gt;Node8 -->
<g id="edge7_Node000001_Node000008" class="edge">
<title>Node1&#45;&gt;Node8</title>
<g id="a_edge7_Node000001_Node000008"><a xlink:title=" ">
<path fill="none" stroke="#63b8ff" d="M64.01,-209.63C79.92,-200.96 103.52,-188.52 124.75,-179 127.91,-177.58 131.17,-176.17 134.48,-174.78"/>
<polygon fill="#63b8ff" stroke="#63b8ff" points="135.78,-178.03 143.71,-171.01 133.13,-171.55 135.78,-178.03"/>
</a>
</g>
</g>
<!-- Node9 -->
<g id="Node000009" class="node">
<title>Node9</title>
<g id="a_Node000009"><a xlink:href="group__scd4x__interface__driver.html#gae124b324630ea1afd865209e1e7f009a" target="_top" xlink:title="interface iic bus write command">
<polygon fill="white" stroke="#666666" points="240.88,-120 140.88,-120 140.88,-88 240.88,-88 240.88,-120"/>
<text xml:space="preserve" text-anchor="start" x="148.88" y="-106.5" font-family="Helvetica,sans-Serif" font-size="10.00">scd4x_interface_iic</text>
<text xml:space="preserve" text-anchor="middle" x="190.88" y="-94.5" font-family="Helvetica,sans-Serif" font-size="10.00">_write_cmd</text>
</a>
</g>
</g>
<!-- Node1&#45;&gt;Node9 -->
<g id="edge8_Node000001_Node000009" class="edge">
<title>Node1&#45;&gt;Node9</title>
<g id="a_edge8_Node000001_Node000009"><a xlink:title=" ">
<path fill="none" stroke="#63b8ff" d="M51.97,-209.52C64.19,-190.89 92.1,-151.82 124.75,-129 126.57,-127.73 128.47,-126.5 130.42,-125.34"/>
<polygon fill="#63b8ff" stroke="#63b8ff" points="132.03,-128.45 139.2,-120.65 128.73,-122.27 132.03,-128.45"/>
</a>
</g>
</g>
<!-- Node10 -->
<g id="Node000010" class="node">
<title>Node10</title>
<g id="a_Node000010"><a xlink:href="group__scd4x__basic__driver.html#ga62c640c47366d71fc4cf405b82084371" target="_top" xlink:title="set type">
<polygon fill="white" stroke="#666666" points="233.38,-70 148.38,-70 148.38,-50 233.38,-50 233.38,-70"/>
<text xml:space="preserve" text-anchor="middle" x="190.88" y="-56.5" font-family="Helvetica,sans-Serif" font-size="10.00">scd4x_set_type</text>
</a>
</g>
</g>
<!-- Node1&#45;&gt;Node10 -->
<g id="edge9_Node000001_Node000010" class="edge">
<title>Node1&#45;&gt;Node10</title>
<g id="a_edge9_Node000001_Node000010"><a xlink:title=" ">
<path fill="none" stroke="#63b8ff" d="M48.2,-209.7C55.88,-183.68 79.65,-114.8 124.75,-79 128.64,-75.91 133.02,-73.32 137.62,-71.15"/>
<polygon fill="#63b8ff" stroke="#63b8ff" points="138.53,-74.56 146.53,-67.61 135.95,-68.05 138.53,-74.56"/>
</a>
</g>
</g>
<!-- Node11 -->
<g id="Node000011" class="node">
<title>Node11</title>
<g id="a_Node000011"><a xlink:href="group__scd4x__basic__driver.html#gaa2152f75a36ec95adddd9d7a23907032" target="_top" xlink:title="start periodic measurement">
<polygon fill="white" stroke="#666666" points="243.88,-32 137.88,-32 137.88,0 243.88,0 243.88,-32"/>
<text xml:space="preserve" text-anchor="start" x="145.88" y="-18.5" font-family="Helvetica,sans-Serif" font-size="10.00">scd4x_start_periodic</text>
<text xml:space="preserve" text-anchor="middle" x="190.88" y="-6.5" font-family="Helvetica,sans-Serif" font-size="10.00">_measurement</text>
</a>
</g>
</g>
<!-- Node1&#45;&gt;Node11 -->
<g id="edge10_Node000001_Node000011" class="edge">
<title>Node1&#45;&gt;Node11</title>
<g id="a_edge10_Node000001_Node000011"><a xlink:title=" ">
<path fill="none" stroke="#63b8ff" d="M47.13,-209.5C52.74,-179.13 73,-90.18 124.75,-41 125.81,-39.99 126.92,-39.02 128.06,-38.09"/>
<polygon fill="#63b8ff" stroke="#63b8ff" points="129.94,-41.05 136.23,-32.52 126,-35.26 129.94,-41.05"/>
</a>
</g>
</g>
</g>
</svg>
