<?xml version="1.0" encoding="UTF-8" standalone="no"?>
<!DOCTYPE svg PUBLIC "-//W3C//DTD SVG 1.1//EN"
 "http://www.w3.org/Graphics/SVG/1.1/DTD/svg11.dtd">
<!-- Generated by graphviz version 13.1.0 (20250701.0955)
 -->
<!-- Title: scd4x_shot_read Pages: 1 -->
<svg width="274pt" height="154pt"
 viewBox="0.00 0.00 274.00 154.00" xmlns="http://www.w3.org/2000/svg" xmlns:xlink="http://www.w3.org/1999/xlink">
<g id="graph0" class="graph" transform="scale(1 1) rotate(0) translate(4 150)">
<title>scd4x_shot_read</title>
<!-- Node1 -->
<g id="Node000001" class="node">
<title>Node1</title>
<g id="a_Node000001"><a xlink:title="shot example read">
<polygon fill="#999999" stroke="#666666" points="90.25,-77 0,-77 0,-57 90.25,-57 90.25,-77"/>
<text xml:space="preserve" text-anchor="middle" x="45.12" y="-63.5" font-family="Helvetica,sans-Serif" font-size="10.00">scd4x_shot_read</text>
</a>
</g>
</g>
<!-- Node2 -->
<g id="Node000002" class="node">
<title>Node2</title>
<g id="a_Node000002"><a xlink:href="group__scd4x__basic__driver.html#ga03ba59a13acd4649e28a5658e9b50c8d" target="_top" xlink:title="get data ready status">
<polygon fill="white" stroke="#666666" points="253.25,-146 139,-146 139,-114 253.25,-114 253.25,-146"/>
<text xml:space="preserve" text-anchor="start" x="147" y="-132.5" font-family="Helvetica,sans-Serif" font-size="10.00">scd4x_get_data_ready</text>
<text xml:space="preserve" text-anchor="middle" x="196.12" y="-120.5" font-family="Helvetica,sans-Serif" font-size="10.00">_status</text>
</a>
</g>
</g>
<!-- Node1&#45;&gt;Node2 -->
<g id="edge1_Node000001_Node000002" class="edge">
<title>Node1&#45;&gt;Node2</title>
<g id="a_edge1_Node000001_Node000002"><a xlink:title=" ">
<path fill="none" stroke="#63b8ff" d="M66.63,-77.39C82.68,-85.35 105.65,-96.4 126.25,-105 129.82,-106.49 133.52,-107.98 137.26,-109.45"/>
<polygon fill="#63b8ff" stroke="#63b8ff" points="135.84,-112.65 146.43,-112.97 138.35,-106.12 135.84,-112.65"/>
</a>
</g>
</g>
<!-- Node3 -->
<g id="Node000003" class="node">
<title>Node3</title>
<g id="a_Node000003"><a xlink:href="group__scd4x__interface__driver.html#ga71814c8ae04515f11a6e27bede9ecc5a" target="_top" xlink:title="interface delay ms">
<polygon fill="white" stroke="#666666" points="262.25,-96 130,-96 130,-76 262.25,-76 262.25,-96"/>
<text xml:space="preserve" text-anchor="middle" x="196.12" y="-82.5" font-family="Helvetica,sans-Serif" font-size="10.00">scd4x_interface_delay_ms</text>
</a>
</g>
</g>
<!-- Node1&#45;&gt;Node3 -->
<g id="edge2_Node000001_Node000003" class="edge">
<title>Node1&#45;&gt;Node3</title>
<g id="a_edge2_Node000001_Node000003"><a xlink:title=" ">
<path fill="none" stroke="#63b8ff" d="M90.43,-72.65C99.31,-73.78 108.87,-75 118.49,-76.23"/>
<polygon fill="#63b8ff" stroke="#63b8ff" points="117.89,-79.68 128.26,-77.47 118.78,-72.74 117.89,-79.68"/>
</a>
</g>
</g>
<!-- Node4 -->
<g id="Node000004" class="node">
<title>Node4</title>
<g id="a_Node000004"><a xlink:href="group__scd4x__advance__driver.html#ga9448c2b2d92eed9e0458d3ba6c3ee5ab" target="_top" xlink:title="measure single shot">
<polygon fill="white" stroke="#666666" points="266,-58 126.25,-58 126.25,-38 266,-38 266,-58"/>
<text xml:space="preserve" text-anchor="middle" x="196.12" y="-44.5" font-family="Helvetica,sans-Serif" font-size="10.00">scd4x_measure_single_shot</text>
</a>
</g>
</g>
<!-- Node1&#45;&gt;Node4 -->
<g id="edge3_Node000001_Node000004" class="edge">
<title>Node1&#45;&gt;Node4</title>
<g id="a_edge3_Node000001_Node000004"><a xlink:title=" ">
<path fill="none" stroke="#63b8ff" d="M90.43,-61.35C98.09,-60.37 106.27,-59.33 114.56,-58.27"/>
<polygon fill="#63b8ff" stroke="#63b8ff" points="114.89,-61.76 124.37,-57.02 114.01,-54.82 114.89,-61.76"/>
</a>
</g>
</g>
<!-- Node5 -->
<g id="Node000005" class="node">
<title>Node5</title>
<g id="a_Node000005"><a xlink:href="group__scd4x__basic__driver.html#ga526f979dff28e64414aafeffce19bf6a" target="_top" xlink:title="read data">
<polygon fill="white" stroke="#666666" points="229.25,-20 163,-20 163,0 229.25,0 229.25,-20"/>
<text xml:space="preserve" text-anchor="middle" x="196.12" y="-6.5" font-family="Helvetica,sans-Serif" font-size="10.00">scd4x_read</text>
</a>
</g>
</g>
<!-- Node1&#45;&gt;Node5 -->
<g id="edge4_Node000001_Node000005" class="edge">
<title>Node1&#45;&gt;Node5</title>
<g id="a_edge4_Node000001_Node000005"><a xlink:title=" ">
<path fill="none" stroke="#63b8ff" d="M65.47,-56.66C81.45,-48.4 104.89,-36.94 126.25,-29 134.33,-25.99 143.11,-23.22 151.6,-20.77"/>
<polygon fill="#63b8ff" stroke="#63b8ff" points="152.36,-24.19 161.06,-18.15 150.49,-17.45 152.36,-24.19"/>
</a>
</g>
</g>
</g>
</svg>
