<?xml version="1.0" encoding="UTF-8" standalone="no"?>
<!DOCTYPE svg PUBLIC "-//W3C//DTD SVG 1.1//EN"
 "http://www.w3.org/Graphics/SVG/1.1/DTD/svg11.dtd">
<!-- Generated by graphviz version 13.1.0 (20250701.0955)
 -->
<!-- Title: scd4x_shot_init Pages: 1 -->
<svg width="261pt" height="342pt"
 viewBox="0.00 0.00 261.00 342.00" xmlns="http://www.w3.org/2000/svg" xmlns:xlink="http://www.w3.org/1999/xlink">
<g id="graph0" class="graph" transform="scale(1 1) rotate(0) translate(4 338)">
<title>scd4x_shot_init</title>
<!-- Node1 -->
<g id="Node000001" class="node">
<title>Node1</title>
<g id="a_Node000001"><a xlink:title="shot example init">
<polygon fill="#999999" stroke="#666666" points="84.25,-180 0,-180 0,-160 84.25,-160 84.25,-180"/>
<text xml:space="preserve" text-anchor="middle" x="42.12" y="-166.5" font-family="Helvetica,sans-Serif" font-size="10.00">scd4x_shot_init</text>
</a>
</g>
</g>
<!-- Node2 -->
<g id="Node000002" class="node">
<title>Node2</title>
<g id="a_Node000002"><a xlink:href="group__scd4x__basic__driver.html#ga873aa589ed9fdc270fc35e5523b002fc" target="_top" xlink:title="initialize the chip">
<polygon fill="white" stroke="#666666" points="216.5,-334 156.25,-334 156.25,-314 216.5,-314 216.5,-334"/>
<text xml:space="preserve" text-anchor="middle" x="186.38" y="-320.5" font-family="Helvetica,sans-Serif" font-size="10.00">scd4x_init</text>
</a>
</g>
</g>
<!-- Node1&#45;&gt;Node2 -->
<g id="edge1_Node000001_Node000002" class="edge">
<title>Node1&#45;&gt;Node2</title>
<g id="a_edge1_Node000001_Node000002"><a xlink:title=" ">
<path fill="none" stroke="#63b8ff" d="M46.03,-180.23C53.71,-205.42 77.01,-270.9 120.25,-305 127.4,-310.64 136.18,-314.61 144.94,-317.4"/>
<polygon fill="#63b8ff" stroke="#63b8ff" points="143.89,-320.74 154.45,-319.95 145.7,-313.98 143.89,-320.74"/>
</a>
</g>
</g>
<!-- Node3 -->
<g id="Node000003" class="node">
<title>Node3</title>
<g id="a_Node000003"><a xlink:href="group__scd4x__interface__driver.html#gab9a9e2f27cee5704e5bf3dd92058e5b8" target="_top" xlink:title="interface print format data">
<polygon fill="white" stroke="#666666" points="244.62,-296 128.12,-296 128.12,-264 244.62,-264 244.62,-296"/>
<text xml:space="preserve" text-anchor="start" x="136.12" y="-282.5" font-family="Helvetica,sans-Serif" font-size="10.00">scd4x_interface_debug</text>
<text xml:space="preserve" text-anchor="middle" x="186.38" y="-270.5" font-family="Helvetica,sans-Serif" font-size="10.00">_print</text>
</a>
</g>
</g>
<!-- Node1&#45;&gt;Node3 -->
<g id="edge2_Node000001_Node000003" class="edge">
<title>Node1&#45;&gt;Node3</title>
<g id="a_edge2_Node000001_Node000003"><a xlink:title=" ">
<path fill="none" stroke="#63b8ff" d="M50.02,-180.33C62.23,-197.92 89.34,-233.84 120.25,-255 122.01,-256.21 123.84,-257.36 125.72,-258.48"/>
<polygon fill="#63b8ff" stroke="#63b8ff" points="123.61,-261.32 134.09,-262.94 126.91,-255.14 123.61,-261.32"/>
</a>
</g>
</g>
<!-- Node4 -->
<g id="Node000004" class="node">
<title>Node4</title>
<g id="a_Node000004"><a xlink:href="group__scd4x__interface__driver.html#ga71814c8ae04515f11a6e27bede9ecc5a" target="_top" xlink:title="interface delay ms">
<polygon fill="white" stroke="#666666" points="252.5,-246 120.25,-246 120.25,-226 252.5,-226 252.5,-246"/>
<text xml:space="preserve" text-anchor="middle" x="186.38" y="-232.5" font-family="Helvetica,sans-Serif" font-size="10.00">scd4x_interface_delay_ms</text>
</a>
</g>
</g>
<!-- Node1&#45;&gt;Node4 -->
<g id="edge3_Node000001_Node000004" class="edge">
<title>Node1&#45;&gt;Node4</title>
<g id="a_edge3_Node000001_Node000004"><a xlink:title=" ">
<path fill="none" stroke="#63b8ff" d="M57.56,-180.4C72.6,-190.85 97.15,-206.81 120.25,-217 124.26,-218.77 128.47,-220.42 132.76,-221.96"/>
<polygon fill="#63b8ff" stroke="#63b8ff" points="131.42,-225.21 142.01,-225.06 133.64,-218.57 131.42,-225.21"/>
</a>
</g>
</g>
<!-- Node5 -->
<g id="Node000005" class="node">
<title>Node5</title>
<g id="a_Node000005"><a xlink:href="group__scd4x__interface__driver.html#ga9a75c8aec4846db2e2a54c6e054821d0" target="_top" xlink:title="interface iic bus deinit">
<polygon fill="white" stroke="#666666" points="236.38,-208 136.38,-208 136.38,-176 236.38,-176 236.38,-208"/>
<text xml:space="preserve" text-anchor="start" x="144.38" y="-194.5" font-family="Helvetica,sans-Serif" font-size="10.00">scd4x_interface_iic</text>
<text xml:space="preserve" text-anchor="middle" x="186.38" y="-182.5" font-family="Helvetica,sans-Serif" font-size="10.00">_deinit</text>
</a>
</g>
</g>
<!-- Node1&#45;&gt;Node5 -->
<g id="edge4_Node000001_Node000005" class="edge">
<title>Node1&#45;&gt;Node5</title>
<g id="a_edge4_Node000001_Node000005"><a xlink:title=" ">
<path fill="none" stroke="#63b8ff" d="M84.65,-176.42C97.21,-178.36 111.26,-180.54 124.8,-182.63"/>
<polygon fill="#63b8ff" stroke="#63b8ff" points="124.09,-186.06 134.5,-184.13 125.16,-179.15 124.09,-186.06"/>
</a>
</g>
</g>
<!-- Node6 -->
<g id="Node000006" class="node">
<title>Node6</title>
<g id="a_Node000006"><a xlink:href="group__scd4x__interface__driver.html#ga4cb023c5a744b8df087040795c7eb275" target="_top" xlink:title="interface iic bus init">
<polygon fill="white" stroke="#666666" points="245.38,-158 127.38,-158 127.38,-138 245.38,-138 245.38,-158"/>
<text xml:space="preserve" text-anchor="middle" x="186.38" y="-144.5" font-family="Helvetica,sans-Serif" font-size="10.00">scd4x_interface_iic_init</text>
</a>
</g>
</g>
<!-- Node1&#45;&gt;Node6 -->
<g id="edge5_Node000001_Node000006" class="edge">
<title>Node1&#45;&gt;Node6</title>
<g id="a_edge5_Node000001_Node000006"><a xlink:title=" ">
<path fill="none" stroke="#63b8ff" d="M84.65,-163.58C94.45,-162.06 105.16,-160.41 115.83,-158.76"/>
<polygon fill="#63b8ff" stroke="#63b8ff" points="116.04,-162.27 125.39,-157.28 114.97,-155.35 116.04,-162.27"/>
</a>
</g>
</g>
<!-- Node7 -->
<g id="Node000007" class="node">
<title>Node7</title>
<g id="a_Node000007"><a xlink:href="group__scd4x__interface__driver.html#gaafb0ebf4f1c86548f875e20a38b86a3d" target="_top" xlink:title="interface iic bus read command">
<polygon fill="white" stroke="#666666" points="236.38,-120 136.38,-120 136.38,-88 236.38,-88 236.38,-120"/>
<text xml:space="preserve" text-anchor="start" x="144.38" y="-106.5" font-family="Helvetica,sans-Serif" font-size="10.00">scd4x_interface_iic</text>
<text xml:space="preserve" text-anchor="middle" x="186.38" y="-94.5" font-family="Helvetica,sans-Serif" font-size="10.00">_read_cmd</text>
</a>
</g>
</g>
<!-- Node1&#45;&gt;Node7 -->
<g id="edge6_Node000001_Node000007" class="edge">
<title>Node1&#45;&gt;Node7</title>
<g id="a_edge6_Node000001_Node000007"><a xlink:title=" ">
<path fill="none" stroke="#63b8ff" d="M61.2,-159.58C76.63,-150.89 99.55,-138.43 120.25,-129 123.4,-127.56 126.66,-126.14 129.96,-124.74"/>
<polygon fill="#63b8ff" stroke="#63b8ff" points="131.27,-127.98 139.18,-120.94 128.61,-121.51 131.27,-127.98"/>
</a>
</g>
</g>
<!-- Node8 -->
<g id="Node000008" class="node">
<title>Node8</title>
<g id="a_Node000008"><a xlink:href="group__scd4x__interface__driver.html#gae124b324630ea1afd865209e1e7f009a" target="_top" xlink:title="interface iic bus write command">
<polygon fill="white" stroke="#666666" points="236.38,-70 136.38,-70 136.38,-38 236.38,-38 236.38,-70"/>
<text xml:space="preserve" text-anchor="start" x="144.38" y="-56.5" font-family="Helvetica,sans-Serif" font-size="10.00">scd4x_interface_iic</text>
<text xml:space="preserve" text-anchor="middle" x="186.38" y="-44.5" font-family="Helvetica,sans-Serif" font-size="10.00">_write_cmd</text>
</a>
</g>
</g>
<!-- Node1&#45;&gt;Node8 -->
<g id="edge7_Node000001_Node000008" class="edge">
<title>Node1&#45;&gt;Node8</title>
<g id="a_edge7_Node000001_Node000008"><a xlink:title=" ">
<path fill="none" stroke="#63b8ff" d="M49.46,-159.51C61.22,-140.87 88.16,-101.77 120.25,-79 122.06,-77.71 123.95,-76.48 125.9,-75.3"/>
<polygon fill="#63b8ff" stroke="#63b8ff" points="127.51,-78.41 134.65,-70.58 124.19,-72.25 127.51,-78.41"/>
</a>
</g>
</g>
<!-- Node9 -->
<g id="Node000009" class="node">
<title>Node9</title>
<g id="a_Node000009"><a xlink:href="group__scd4x__basic__driver.html#ga62c640c47366d71fc4cf405b82084371" target="_top" xlink:title="set type">
<polygon fill="white" stroke="#666666" points="228.88,-20 143.88,-20 143.88,0 228.88,0 228.88,-20"/>
<text xml:space="preserve" text-anchor="middle" x="186.38" y="-6.5" font-family="Helvetica,sans-Serif" font-size="10.00">scd4x_set_type</text>
</a>
</g>
</g>
<!-- Node1&#45;&gt;Node9 -->
<g id="edge8_Node000001_Node000009" class="edge">
<title>Node1&#45;&gt;Node9</title>
<g id="a_edge8_Node000001_Node000009"><a xlink:title=" ">
<path fill="none" stroke="#63b8ff" d="M45.78,-159.71C53.03,-133.69 75.67,-64.84 120.25,-29 124.02,-25.97 128.26,-23.42 132.71,-21.28"/>
<polygon fill="#63b8ff" stroke="#63b8ff" points="134.01,-24.53 141.99,-17.55 131.4,-18.04 134.01,-24.53"/>
</a>
</g>
</g>
</g>
</svg>
